<svg width="1200" height="320" viewBox="0 0 1200 320" fill="none" xmlns="http://www.w3.org/2000/svg" role="img" aria-labelledby="title desc">
  <title id="title">Plumbline</title>
  <desc id="desc">Plumbline wordmark with a plumb line mark and the tagline mission-alignment gate for AI agent PRs.</desc>
  <defs>
    <linearGradient id="panel" x1="0" y1="0" x2="1200" y2="320" gradientUnits="userSpaceOnUse">
      <stop stop-color="#111D2F"/>
      <stop offset="1" stop-color="#070B12"/>
    </linearGradient>
    <linearGradient id="bg" x1="44" y1="32" x2="276" y2="288" gradientUnits="userSpaceOnUse">
      <stop stop-color="#111D2F"/>
      <stop offset="1" stop-color="#0A0F19"/>
    </linearGradient>
    <linearGradient id="line" x1="160" y1="68" x2="160" y2="258" gradientUnits="userSpaceOnUse">
      <stop stop-color="#8CB3FF"/>
      <stop offset="1" stop-color="#4F8CFF"/>
    </linearGradient>
  </defs>
  <rect width="1200" height="320" rx="28" fill="url(#panel)"/>
  <rect x="32" y="32" width="256" height="256" rx="56" fill="url(#bg)"/>
  <path d="M88 244H232" stroke="#2FBF71" stroke-width="10" stroke-linecap="round"/>
  <path d="M160 68V170" stroke="url(#line)" stroke-width="8" stroke-linecap="round"/>
  <circle cx="160" cy="68" r="11" fill="#E8EDF4"/>
  <circle cx="160" cy="68" r="4" fill="#4F8CFF"/>
  <path d="M160 170L203 219L160 268L117 219L160 170Z" fill="#0E1420" stroke="#5B8DEF" stroke-width="10" stroke-linejoin="round"/>
  <path d="M139 219L155 235L183 199" stroke="#2FBF71" stroke-width="11" stroke-linecap="round" stroke-linejoin="round"/>
  <text x="344" y="132" fill="#F4F7FB" font-family="Inter, ui-sans-serif, system-ui, -apple-system, BlinkMacSystemFont, 'Segoe UI', sans-serif" font-size="76" font-weight="760" letter-spacing="0">Plumbline</text>
  <text x="348" y="193" fill="#AFC3DF" font-family="Inter, ui-sans-serif, system-ui, -apple-system, BlinkMacSystemFont, 'Segoe UI', sans-serif" font-size="31" font-weight="560" letter-spacing="0">Mission-alignment gate for AI agent PRs</text>
  <path d="M350 225H690" stroke="#2B4467" stroke-width="4" stroke-linecap="round"/>
  <circle cx="718" cy="225" r="7" fill="#2FBF71"/>
  <text x="741" y="236" fill="#8398B6" font-family="Inter, ui-sans-serif, system-ui, -apple-system, BlinkMacSystemFont, 'Segoe UI', sans-serif" font-size="22" font-weight="600" letter-spacing="0">proof receipts · semantic review</text>
</svg>
